<?xml version="1.0" encoding="utf-8"?>
<!-- Generator: Adobe Illustrator 25.4.1, SVG Export Plug-In . SVG Version: 6.00 Build 0)  -->
<svg version="1.1" id="Capa_1" xmlns="http://www.w3.org/2000/svg" xmlns:xlink="http://www.w3.org/1999/xlink" x="0px" y="0px"
	 viewBox="0 0 69.88 101.98" style="enable-background:new 0 0 69.88 101.98;" xml:space="preserve">
<path d="M35.48,0.99c18.57,0,33.72,12.56,33.72,32.7c0,8.49-2.84,16.32-8.62,21.91c-1.84,1.78-3.96,3.32-6.35,4.59
	c2.54,0.84,4.76,1.9,6.68,3.18c5.65,3.76,8.29,9.64,8.29,15.75c0,16.73-18.13,22.15-33.72,21.87H0.68c0.79-1.37,1.39-3.41,1.39-4.85
	V5.85c0-1.44-0.6-3.48-1.39-4.85L35.48,0.99z M17.89,57.73h10.19c1.25,0,2.49-0.06,3.89-0.19c11.33-1.18,21.15-7.8,21.41-23.85
	c0-16.65-9.63-26.03-25.3-26.03H17.89V57.73z M17.89,94.32h10.16c9.6-0.05,25.25-2.62,25.25-15.43c0-11.19-11.97-13.97-22.33-14.42
	c-0.86-0.04-1.93-0.07-2.92-0.07H17.89V94.32z"/>
</svg>
